<?xml version="1.0" encoding="utf-8"?>
<!-- Generator: Adobe Illustrator 16.0.0, SVG Export Plug-In . SVG Version: 6.00 Build 0)  -->
<!DOCTYPE svg PUBLIC "-//W3C//DTD SVG 1.1//EN" "http://www.w3.org/Graphics/SVG/1.1/DTD/svg11.dtd">
<svg version="1.1" id="レイヤー_1" xmlns="http://www.w3.org/2000/svg" xmlns:xlink="http://www.w3.org/1999/xlink" x="0px"
	 y="0px" width="318px" height="314px" viewBox="70.5 -65.5 318 314" enable-background="new 70.5 -65.5 318 314"
	 xml:space="preserve">
<path fill="#7D7D7D" d="M117.09,229.748c11.519,5.066,19.771,2.287,21.458-1.555c2.875-6.523-12.613-26.172-43.888-46.051
	C90.703,202.246,100.711,222.537,117.09,229.748 M89.022,167.896c13.068-29.684,37.827-36.66,59.326-27.199
	c20.347,8.961,35.192,32.145,27.269,68.527l-11.259,2.684c7.149-32.9-3.107-51.934-21.023-59.822
	c-17.149-7.545-34.507-2.818-44.724,18.658c35.513,22.047,57.652,48.443,51.796,61.75c-4.509,10.236-19.963,15.502-37.109,7.955
	C90.008,230.201,75.786,197.971,89.022,167.896"/>
<path fill="#7D7D7D" d="M187.435,95.542l10.32-2.283c-1.411,12.874,0.006,20.643,3.604,24.918
	c5.942,7.062,17.697,5.395,38.564-12.158c9.413-7.92,16.916-15.509,25.668-27.26l8.516,7.089
	c-8.95,11.731-16.769,19.589-27.362,28.503c-25.463,21.42-43.748,24.016-53.107,12.891
	C188.414,121.033,186.308,110.928,187.435,95.542 M205.155,26.913l8.044,4.565c-5.176,14.041-9.211,28.578-11.889,42.343
	l-10.818,1.249c2.382-10.412,4.989-19.911,7.614-28.523l-32.739,27.548l-6.75-8.023L205.155,26.913z"/>
<path fill="#7D7D7D" d="M319.077,14.069c-4.991,1.366-8.342,7.647-5.976,16.276c2.365,8.633,8.044,10.844,13.038,9.475
	c4.849-1.332,7.481-6.544,5.664-14.748c-0.147-0.534-0.291-1.075-0.442-1.616C328.433,15.418,324.197,12.664,319.077,14.069
	 M311.297,76.651c19.654-11.333,24.975-20.473,24.062-33.85c-1.971,2.859-5.044,4.861-8.688,5.861
	c-10.651,2.923-20.921-1.223-24.761-15.25c-3.622-13.212,2.273-23.957,13.332-26.99c4.443-1.218,8.458-0.869,11.649,0.719
	l-3.663-13.345L266.063,9.465l-2.771-10.111l57.163-15.673l-6.985-25.48l11.6-3.18l6.983,25.483l41.123-11.275l2.771,10.111
	L334.825-9.384l7.908,28.855c7.393,26.966,9.32,44.56-23.235,64.354L311.297,76.651z"/>
</svg>
