<?xml version="1.0" encoding="utf-8"?>
<!-- Generator: Adobe Illustrator 16.0.0, SVG Export Plug-In . SVG Version: 6.00 Build 0)  -->
<!DOCTYPE svg PUBLIC "-//W3C//DTD SVG 1.1//EN" "http://www.w3.org/Graphics/SVG/1.1/DTD/svg11.dtd">
<svg version="1.1" id="レイヤー_1" xmlns="http://www.w3.org/2000/svg" xmlns:xlink="http://www.w3.org/1999/xlink" x="0px"
	 y="0px" width="318px" height="314px" viewBox="0 0 318 314" enable-background="new 0 0 318 314" xml:space="preserve">
<path fill="#FFFFFF" d="M50.09,285.748c11.519,5.066,19.771,2.287,21.458-1.555c2.875-6.523-12.613-26.172-43.888-46.051
	C23.703,258.246,33.711,278.537,50.09,285.748 M22.022,223.896c13.068-29.685,37.827-36.66,59.326-27.199
	c20.347,8.961,35.192,32.145,27.269,68.527l-11.26,2.684c7.149-32.9-3.106-51.934-21.022-59.822
	c-17.149-7.545-34.507-2.817-44.724,18.658c35.513,22.047,57.652,48.443,51.796,61.75c-4.509,10.236-19.963,15.502-37.109,7.955
	C23.008,286.201,8.786,253.971,22.022,223.896"/>
<path fill="#FFFFFF" d="M120.436,151.542l10.319-2.283c-1.411,12.874,0.007,20.644,3.604,24.919
	c5.941,7.062,17.697,5.395,38.563-12.158c9.413-7.92,16.916-15.509,25.668-27.26l8.517,7.089
	c-8.951,11.73-16.77,19.589-27.362,28.503c-25.463,21.42-43.748,24.016-53.106,12.891
	C121.414,177.033,119.309,166.928,120.436,151.542 M138.154,82.913l8.045,4.565c-5.176,14.041-9.211,28.578-11.889,42.343
	l-10.818,1.249c2.382-10.412,4.988-19.911,7.613-28.523l-32.738,27.549l-6.75-8.023L138.154,82.913z"/>
<path fill="#FFFFFF" d="M252.077,70.069c-4.991,1.366-8.343,7.646-5.976,16.276c2.364,8.633,8.043,10.844,13.037,9.475
	c4.85-1.332,7.481-6.544,5.664-14.748c-0.146-0.534-0.291-1.075-0.441-1.616C261.434,71.418,257.197,68.664,252.077,70.069
	 M244.297,132.651c19.654-11.333,24.975-20.473,24.062-33.85c-1.971,2.858-5.045,4.86-8.688,5.86
	c-10.651,2.923-20.921-1.223-24.761-15.25c-3.622-13.212,2.273-23.957,13.332-26.99c4.443-1.218,8.458-0.868,11.648,0.72
	l-3.662-13.346l-57.166,15.669l-2.771-10.11l57.163-15.673l-6.984-25.48l11.6-3.18l6.982,25.482l41.123-11.274l2.771,10.11
	l-41.122,11.276l7.907,28.855c7.394,26.966,9.32,44.56-23.234,64.354L244.297,132.651z"/>
</svg>
