<?xml version="1.0" encoding="utf-8"?>
<!-- Generator: Adobe Illustrator 16.0.0, SVG Export Plug-In . SVG Version: 6.00 Build 0)  -->
<!DOCTYPE svg PUBLIC "-//W3C//DTD SVG 1.1//EN" "http://www.w3.org/Graphics/SVG/1.1/DTD/svg11.dtd">
<svg version="1.1" id="レイヤー_1" xmlns="http://www.w3.org/2000/svg" xmlns:xlink="http://www.w3.org/1999/xlink" x="0px"
	 y="0px" width="248px" height="548px" viewBox="108.5 -161.5 248 548" enable-background="new 108.5 -161.5 248 548"
	 xml:space="preserve">
<path fill="#9E9E9F" d="M235.803-105.046c12.508-5.604,45.916-20.271,68.555-30.266l5.087,11.358
	c-23.318,9.837-53.741,23.316-69.175,30.237c-15.564,6.977-18.279,14.932-12.56,27.691c5.602,12.501,17.314,22.571,38.286,28.335
	l-8.082,8.982c-21.249-6.4-33.988-17.393-40.848-32.702C208.258-81.055,213.479-95.042,235.803-105.046"/>
<path fill="#9E9E9F" d="M305.33,46.532c0.27,21.116-10.354,32.302-25.316,32.494c-18.039,0.232-34.182-15.369-37.77-55.179
	l9.168-4.874c3.25,35.343,14.607,48.482,27.89,48.312c9.508-0.123,16.129-7.202,15.937-22.16
	c-0.172-13.705-6.84-31.799-11.562-51.316l10.008-4.464C298.012,10.546,305.144,32.409,305.33,46.532"/>
<path fill="#9E9E9F" d="M272.853,212.697l1.927,10.82c-20.14,8.361-36.338,8.533-59.47,1.639l3.015-12.254
	C239.767,219.734,255.084,220.064,272.853,212.697 M230.963,134.312l8.435,5.635c-6.946,5.121-10.448,8.994-12.331,12.746
	c-1.628,3.252-1.689,5.566,0.994,10.191c4.055,6.883,16.991,16.652,32.121,24.227c8.499,4.262,12,2.885,16.197-5.486
	c1.066-2.127,2.132-4.879,3.319-7.881c-18.991-18.586-35.729-39.172-47.161-59.127l9.767-6.996
	c9.736,18.332,24.353,37.229,41.598,54.314c2.568-7.941,5.203-16.943,7.712-25.695l10.751,1.947
	c-3.95,11.316-7.455,22.064-10.782,31.193c8.749,8.137,18.121,15.648,27.686,22.471l-7.018,9.939
	c-8.495-6.447-16.99-13.52-24.99-20.967c-1.065,2.438-1.941,4.496-2.883,6.373c-7.827,15.625-15.33,17.805-29.711,10.604
	c-16.002-8.016-29.687-18.471-35.746-27.609c-5.366-8.006-5.612-14.383-2.604-20.387
	C218.821,144.809,223.015,140.18,230.963,134.312"/>
<path fill="#9E9E9F" d="M187.576,277.439c-1.323-8.482-3.117-17.311-5.384-25.389l6.62-8.471
	c11.049,4.695,20.189,11.68,27.432,20.557c7.432,9.1,14.767,20.074,23.604,36.863l-10.439,6
	c-7.954-15.707-14.849-26.141-21.659-34.482c-4.155-5.088-9.223-9.975-14.37-13.176c1.399,6.801,2.876,13.9,4.457,21.814
	L187.576,277.439z M193.369,339.135c-12.502-10.012-21.679-19.484-29.641-29.232c-17.505-21.441-30.436-43.914-18.232-81.131
	l11.989,0.316c-11.885,34.07-0.848,52.678,15.511,72.713c8.047,9.854,16.803,18.59,28.45,28.209L193.369,339.135z"/>
</svg>
