<?xml version="1.0" encoding="utf-8"?>
<!-- Generator: Adobe Illustrator 16.0.0, SVG Export Plug-In . SVG Version: 6.00 Build 0)  -->
<!DOCTYPE svg PUBLIC "-//W3C//DTD SVG 1.1//EN" "http://www.w3.org/Graphics/SVG/1.1/DTD/svg11.dtd">
<svg version="1.1" id="レイヤー_1" xmlns="http://www.w3.org/2000/svg" xmlns:xlink="http://www.w3.org/1999/xlink" x="0px"
	 y="0px" width="494px" height="576px" viewBox="-23.5 -181.5 494 576" enable-background="new -23.5 -181.5 494 576"
	 xml:space="preserve">
<polygon fill="#7D7D7D" points="370.76,232.524 370.76,338.185 290.658,232.524 270.682,232.524 270.682,363.418 288.482,363.418 
	288.482,257.757 368.583,363.418 388.559,363.418 388.559,232.524 "/>
<polygon fill="#5E5C5C" points="54.865,-94.51 16.031,-160.152 -3.485,-160.152 45.797,-77.951 45.797,-29.261 63.539,-29.261 
	63.539,-77.951 112.82,-160.152 93.896,-160.152 "/>
<path fill="#9E9E9F" d="M353.146,68.094c5.526,16.204,20.817,33.538,53.058,33.538c32.058,0,48.453-19.03,48.453-37.683
	c0-18.465-13.449-31.654-35.925-34.104l-23.029-2.449c-14.37-1.508-22.66-7.537-22.66-19.03c0-11.305,10.87-20.915,30.029-20.915
	c15.844,0,29.293,7.349,34.083,17.711h18.055c-5.159-15.261-21.555-33.538-51.585-33.538c-29.107,0-47.163,15.45-47.163,37.495
	c0,17.712,10.134,31.089,34.267,33.727l21.371,2.261c17.502,1.884,25.977,7.914,25.977,19.784c0,12.059-13.264,20.914-31.872,20.914
	c-16.212,0-29.476-6.971-35.003-17.711H353.146z"/>
</svg>
