<?xml version="1.0" encoding="utf-8"?>
<!-- Generator: Adobe Illustrator 16.0.0, SVG Export Plug-In . SVG Version: 6.00 Build 0)  -->
<!DOCTYPE svg PUBLIC "-//W3C//DTD SVG 1.1//EN" "http://www.w3.org/Graphics/SVG/1.1/DTD/svg11.dtd">
<svg version="1.1" id="レイヤー_1" xmlns="http://www.w3.org/2000/svg" xmlns:xlink="http://www.w3.org/1999/xlink" x="0px"
	 y="0px" width="638.969px" height="763.461px" viewBox="0 0 638.969 763.461" enable-background="new 0 0 638.969 763.461"
	 xml:space="preserve">
<path fill="#FFFFFF" d="M173.374,116.654c-9.667-11.419-23.7-13.275-36.091-4.981c5.319,5.203,10.7,10.909,16.029,17.204
	c7.678,9.066,14.011,17.628,18.036,26.497C182.137,144.96,183.764,128.924,173.374,116.654 M174.891,166.477
	c1.955,9.886,0.969,20.616-4.557,33.354l-11.035-0.917c4.703-10.026,6.195-18.434,5.168-26.357
	c-7.085,2.882-14.868,3.43-24.243,1.657l-4.166-10.762c10.297,2.642,18.49,1.93,25.604-1.346
	c-3.485-8.226-9.455-16.357-17.128-25.429c-5.333-6.295-10.625-11.891-15.958-16.896c-9.875,12.568-11.765,31.758-5.272,53.918
	c0.739,3.04,2.048,5.233,3.308,6.726c1.93,1.845,4.271,3.529,7.702,5.206l-5.063,9.598c-11.542-4.333-18.815-9.897-26.318-18.754
	c-8.578-10.135-15.466-20.431-23.044-35.443l9.782-5.538c6.573,14.04,12.535,23.46,19.039,31.145
	c2.078,2.454,2.808,3.307,3.83,4.083c-5.853-22.701-2.86-43.189,8.465-57.724c-5.476-4.525-11.008-8.451-16.759-12.004l7.196-9.027
	c6.332,3.8,12.232,7.962,17.891,12.699c17.755-14.3,38.539-12.476,52.902,4.491c14.272,16.858,11.953,41.168-5.117,55.623
	C176.369,165.41,175.727,165.957,174.891,166.477"/>
<path fill="#FFFFFF" d="M262.695,70.375c20.295-5.802,33.877,1.513,37.984,15.889c4.956,17.341-5.846,37.006-43.307,50.914
	l-7.106-7.565c33.234-12.408,42.927-26.815,39.275-39.582c-2.612-9.136-11.177-13.665-25.56-9.554
	c-13.168,3.762-28.876,14.941-46.46,24.625l-6.938-8.486C229.903,86.874,249.121,74.257,262.695,70.375"/>
<path fill="#FFFFFF" d="M401.849,21.41c-14.652,15.359-32.366,30.399-50.939,44.229c-2.581,1.841-3.669,2.854-3.796,4.107
	c-0.12,1.109,0.743,2.328,2.923,4.374c20.055,19.498,33.596,36.777,44.488,55.185l-11.646,6.671
	c-10.423-18.925-22.489-35.485-43.614-56.919c-4.572-4.687-6.005-7.223-5.688-10.286c0.288-2.78,2.259-5.528,7.586-9.475
	c17.973-13.473,36.23-29.721,50.875-46.343L401.849,21.41z"/>
<path fill="#FFFFFF" d="M521.658,64.098c-3.659,15.594-8.266,27.951-13.646,39.329c-11.83,25.022-26.555,46.36-65.408,51.344
	l-4.871-10.961c35.872-3.918,47.925-21.882,58.979-45.264c5.441-11.501,9.562-23.163,13.239-37.817L521.658,64.098z M468.452,95.852
	c-7.087,4.85-14.288,10.258-20.606,15.775l-10.495-2.333c-0.513-11.994,1.862-23.242,6.766-33.603
	c5.021-10.618,11.772-21.962,23.132-37.163l9.913,6.853c-10.771,13.931-17.222,24.645-21.825,34.376
	c-2.808,5.939-5.038,12.621-5.716,18.638c5.537-4.189,11.314-8.571,17.777-13.397L468.452,95.852z"/>
<path fill="#FFFFFF" d="M513.803,301.954c12.508-5.604,45.916-20.271,68.556-30.266l5.087,11.358
	c-23.318,9.837-53.741,23.316-69.176,30.237c-15.563,6.977-18.278,14.932-12.56,27.691c5.602,12.501,17.314,22.571,38.286,28.335
	l-8.082,8.982c-21.249-6.4-33.988-17.393-40.848-32.702C486.258,325.945,491.479,311.958,513.803,301.954"/>
<path fill="#FFFFFF" d="M583.33,453.532c0.27,21.116-10.354,32.302-25.316,32.494c-18.039,0.231-34.182-15.369-37.77-55.18
	l9.168-4.874c3.25,35.344,14.607,48.482,27.89,48.312c9.509-0.123,16.129-7.202,15.938-22.16
	c-0.172-13.705-6.84-31.799-11.562-51.316l10.009-4.463C576.012,417.546,583.144,439.409,583.33,453.532"/>
<path fill="#FFFFFF" d="M550.854,619.698l1.927,10.819c-20.141,8.361-36.338,8.532-59.471,1.64l3.016-12.254
	C517.767,626.735,533.084,627.064,550.854,619.698 M508.963,541.312l8.436,5.635c-6.946,5.121-10.448,8.995-12.331,12.747
	c-1.628,3.252-1.689,5.564,0.993,10.189c4.056,6.884,16.991,16.652,32.121,24.228c8.499,4.262,12,2.886,16.197-5.486
	c1.066-2.126,2.132-4.878,3.319-7.88c-18.991-18.586-35.729-39.172-47.161-59.128l9.767-6.996
	c9.736,18.333,24.354,37.229,41.599,54.314c2.567-7.94,5.203-16.943,7.712-25.695l10.751,1.947
	c-3.95,11.315-7.455,22.063-10.782,31.192c8.749,8.137,18.121,15.649,27.686,22.472l-7.018,9.939
	c-8.495-6.448-16.99-13.52-24.99-20.968c-1.064,2.438-1.94,4.497-2.883,6.373c-7.827,15.626-15.33,17.806-29.711,10.604
	c-16.002-8.016-29.687-18.47-35.746-27.607c-5.366-8.007-5.612-14.384-2.604-20.388C496.821,551.808,501.015,547.18,508.963,541.312
	"/>
<path fill="#FFFFFF" d="M465.576,684.439c-1.323-8.481-3.117-17.311-5.384-25.389l6.619-8.472
	c11.05,4.696,20.189,11.68,27.433,20.558c7.432,9.1,14.767,20.073,23.604,36.862l-10.438,6
	c-7.954-15.707-14.85-26.141-21.659-34.482c-4.155-5.087-9.223-9.975-14.37-13.175c1.399,6.801,2.876,13.899,4.457,21.813
	L465.576,684.439z M471.369,746.134c-12.502-10.012-21.679-19.482-29.642-29.231c-17.505-21.44-30.436-43.913-18.231-81.131
	l11.989,0.315c-11.886,34.07-0.849,52.678,15.511,72.713c8.047,9.854,16.803,18.59,28.45,28.209L471.369,746.134z"/>
<path fill="#FFFFFF" d="M47.59,667.249c11.519,5.065,19.771,2.287,21.458-1.555c2.875-6.523-12.613-26.172-43.888-46.053
	C21.203,639.746,31.211,660.037,47.59,667.249 M19.522,605.396c13.068-29.685,37.827-36.66,59.326-27.199
	c20.347,8.962,35.192,32.146,27.269,68.526l-11.259,2.686c7.149-32.901-3.107-51.935-21.023-59.823
	c-17.149-7.544-34.507-2.817-44.724,18.659c35.513,22.047,57.652,48.442,51.796,61.749c-4.509,10.237-19.963,15.503-37.109,7.955
	C20.508,667.701,6.286,635.47,19.522,605.396"/>
<path fill="#FFFFFF" d="M117.935,533.042l10.32-2.283c-1.411,12.873,0.006,20.645,3.604,24.919
	c5.942,7.062,17.697,5.396,38.564-12.159c9.413-7.92,16.916-15.509,25.668-27.26l8.516,7.089
	c-8.95,11.731-16.769,19.589-27.362,28.503c-25.463,21.42-43.748,24.017-53.107,12.893
	C118.914,558.533,116.808,548.428,117.935,533.042 M135.655,464.413l8.044,4.564c-5.176,14.041-9.211,28.578-11.889,42.344
	l-10.818,1.249c2.382-10.412,4.989-19.911,7.614-28.523l-32.739,27.548l-6.75-8.022L135.655,464.413z"/>
<path fill="#FFFFFF" d="M249.577,451.569c-4.991,1.365-8.342,7.646-5.976,16.275c2.365,8.633,8.044,10.845,13.038,9.476
	c4.849-1.332,7.481-6.544,5.664-14.748c-0.147-0.534-0.291-1.075-0.442-1.616C258.933,452.918,254.697,450.164,249.577,451.569
	 M241.797,514.151c19.654-11.333,24.975-20.474,24.062-33.851c-1.971,2.859-5.044,4.861-8.688,5.861
	c-10.651,2.923-20.921-1.223-24.761-15.25c-3.622-13.212,2.273-23.957,13.332-26.99c4.443-1.218,8.458-0.869,11.649,0.719
	l-3.663-13.345l-57.166,15.669l-2.771-10.111l57.163-15.673l-6.985-25.479l11.6-3.18l6.983,25.482l41.123-11.275l2.771,10.111
	l-41.123,11.275l7.908,28.854c7.393,26.966,9.32,44.561-23.235,64.354L241.797,514.151z"/>
</svg>
