<?xml version="1.0" encoding="utf-8"?>
<!-- Generator: Adobe Illustrator 16.0.0, SVG Export Plug-In . SVG Version: 6.00 Build 0)  -->
<!DOCTYPE svg PUBLIC "-//W3C//DTD SVG 1.1//EN" "http://www.w3.org/Graphics/SVG/1.1/DTD/svg11.dtd">
<svg version="1.1" id="レイヤー_1" xmlns="http://www.w3.org/2000/svg" xmlns:xlink="http://www.w3.org/1999/xlink" x="0px"
	 y="0px" width="452px" height="200px" viewBox="102.032 19.038 452 200" enable-background="new 102.032 19.038 452 200"
	 xml:space="preserve">
<path fill="#5E5D5C" d="M201.445,127.516c-9.667-11.419-23.699-13.274-36.091-4.98c5.319,5.202,10.7,10.908,16.029,17.203
	c7.678,9.066,14.011,17.629,18.036,26.497C210.208,155.822,211.835,139.786,201.445,127.516 M202.962,177.339
	c1.955,9.886,0.969,20.616-4.558,33.354l-11.034-0.917c4.702-10.025,6.194-18.434,5.168-26.356
	c-7.085,2.882-14.868,3.43-24.243,1.657l-4.166-10.763c10.297,2.643,18.49,1.931,25.604-1.346
	c-3.484-8.226-9.455-16.357-17.128-25.429c-5.333-6.295-10.625-11.892-15.958-16.896c-9.875,12.568-11.765,31.758-5.271,53.918
	c0.738,3.04,2.048,5.233,3.308,6.727c1.93,1.845,4.271,3.528,7.702,5.206l-5.063,9.598c-11.542-4.333-18.814-9.897-26.317-18.754
	c-8.578-10.135-15.466-20.432-23.044-35.443l9.782-5.538c6.572,14.04,12.534,23.46,19.038,31.146
	c2.078,2.454,2.809,3.307,3.83,4.083c-5.853-22.701-2.859-43.189,8.466-57.725c-5.477-4.524-11.009-8.45-16.76-12.004l7.196-9.026
	c6.332,3.8,12.232,7.962,17.891,12.698c17.756-14.3,38.539-12.476,52.902,4.491c14.272,16.857,11.953,41.168-5.117,55.622
	C204.44,176.271,203.798,176.818,202.962,177.339"/>
<path fill="#5E5D5C" d="M290.767,81.236c20.295-5.802,33.877,1.514,37.984,15.891c4.956,17.341-5.847,37.006-43.308,50.913
	l-7.105-7.565c33.233-12.408,42.927-26.813,39.274-39.582c-2.611-9.136-11.177-13.665-25.56-9.554
	c-13.168,3.762-28.876,14.939-46.46,24.625l-6.938-8.486C257.975,97.735,277.192,85.118,290.767,81.236"/>
<path fill="#5E5D5C" d="M429.92,32.271C415.267,47.63,397.553,62.67,378.98,76.5c-2.581,1.841-3.669,2.854-3.796,4.105
	c-0.12,1.109,0.743,2.328,2.923,4.375c20.056,19.497,33.597,36.776,44.488,55.186l-11.646,6.671
	c-10.424-18.925-22.489-35.485-43.614-56.919c-4.573-4.688-6.005-7.225-5.689-10.286c0.288-2.78,2.259-5.528,7.586-9.476
	c17.974-13.474,36.231-29.722,50.875-46.344L429.92,32.271z"/>
<path fill="#5E5D5C" d="M549.729,74.96c-3.659,15.594-8.265,27.951-13.645,39.328c-11.83,25.021-26.556,46.359-65.409,51.345
	l-4.871-10.961c35.872-3.918,47.925-21.882,58.979-45.266c5.441-11.5,9.562-23.161,13.239-37.815L549.729,74.96z M496.523,106.714
	c-7.087,4.85-14.288,10.258-20.605,15.774l-10.495-2.334c-0.514-11.993,1.861-23.241,6.765-33.603
	c5.021-10.618,11.773-21.962,23.132-37.163l9.913,6.854c-10.77,13.931-17.222,24.645-21.825,34.375
	c-2.808,5.938-5.038,12.62-5.716,18.639c5.537-4.189,11.315-8.571,17.777-13.396L496.523,106.714z"/>
</svg>
